<?xml version="1.0" encoding="utf-8"?>
<!-- Generator: Adobe Illustrator 28.1.0, SVG Export Plug-In . SVG Version: 6.00 Build 0)  -->
<svg version="1.1"
  id="svg1" xmlns:inkscape="http://www.inkscape.org/namespaces/inkscape"
  xmlns:svg="http://www.w3.org/2000/svg"
  xmlns:sodipodi="http://sodipodi.sourceforge.net/DTD/sodipodi-0.dtd" sodipodi:docname="drawing.svg"
  xmlns="http://www.w3.org/2000/svg" xmlns:xlink="http://www.w3.org/1999/xlink" x="0px" y="0px"
  viewBox="0 0 403.9 128.3"
  style="enable-background:new 0 0 403.9 128.3;" xml:space="preserve">
<style type="text/css">
	.st0{enable-background:new    ;}
	.st1{fill:currentColor;}
</style>
<g id="layer1" transform="translate(-43.089812,-28.031476)" inkscape:groupmode="layer" inkscape:label="Layer 1">
	<g class="st0">
		<path class="st1" d="M106.2,149c-7.7,0-14.8-1.4-21.3-4.2c-6.5-2.8-12.2-6.7-17.1-11.7c-4.9-5-8.7-10.8-11.4-17.6
			c-2.7-6.7-4.1-14.1-4.1-22c0-8,1.3-15.3,4-22.1c2.6-6.8,6.4-12.6,11.2-17.6c4.8-4.9,10.5-8.8,17.1-11.5c6.5-2.7,13.6-4.1,21.3-4.1
			c7.7,0,14.6,1.3,20.7,3.9c6.1,2.6,11.3,6,15.5,10.3c4.2,4.3,7.2,9,9.1,14l-17.4,8.4c-2-5.6-5.4-10.1-10.2-13.5
			c-4.8-3.5-10.7-5.2-17.6-5.2c-6.7,0-12.6,1.6-17.8,4.8c-5.1,3.2-9.1,7.5-12,13.1c-2.8,5.6-4.2,12.1-4.2,19.6
			c0,7.5,1.5,14,4.4,19.7c2.9,5.6,7,10,12.2,13.2c5.2,3.2,11.1,4.8,17.9,4.8c5.5,0,10.5-1.1,15.1-3.2c4.6-2.2,8.3-5.2,11.1-9.2
			c2.8-4,4.2-8.7,4.2-14.2v-8.2l8.9,7.8h-39.7V87.5h50.4v10.8c0,8.3-1.4,15.6-4.2,21.9c-2.8,6.3-6.6,11.6-11.3,15.9
			c-4.8,4.3-10.1,7.5-16.1,9.6C118.7,147.9,112.6,149,106.2,149z"/>
		<path class="st1" d="M208.5,149c-7.7,0-14.7-1.8-21-5.3c-6.3-3.5-11.3-8.4-15-14.5c-3.7-6.1-5.5-13.2-5.5-21
			c0-7.9,1.8-14.9,5.5-21c3.7-6.1,8.7-11,14.9-14.5c6.2-3.6,13.2-5.3,21-5.3c7.7,0,14.6,1.8,20.9,5.3c6.2,3.6,11.2,8.4,14.9,14.5
			c3.7,6.1,5.5,13.1,5.5,21.1c0,7.9-1.9,14.9-5.6,21c-3.7,6.1-8.7,11-15,14.5C223,147.2,216.1,149,208.5,149z M208.5,131.7
			c4.2,0,7.9-1,11.2-3c3.2-2,5.8-4.8,7.6-8.4c1.9-3.6,2.8-7.7,2.8-12.2c0-4.6-0.9-8.7-2.8-12.2c-1.9-3.5-4.4-6.3-7.6-8.4
			c-3.2-2.1-6.9-3.1-11.2-3.1c-4.3,0-8.1,1-11.4,3.1c-3.3,2.1-5.8,4.8-7.7,8.4c-1.9,3.5-2.8,7.6-2.8,12.2c0,4.5,0.9,8.6,2.8,12.2
			c1.9,3.6,4.4,6.4,7.7,8.4C200.4,130.7,204.2,131.7,208.5,131.7z"/>
		<path class="st1" d="M302.4,149c-7.7,0-14.7-1.8-21-5.3c-6.3-3.5-11.3-8.4-15-14.5c-3.7-6.1-5.5-13.2-5.5-21
			c0-7.9,1.8-14.9,5.5-21c3.7-6.1,8.7-11,14.9-14.5c6.2-3.6,13.2-5.3,21-5.3c7.7,0,14.6,1.8,20.9,5.3c6.2,3.6,11.2,8.4,14.9,14.5
			c3.7,6.1,5.5,13.1,5.5,21.1c0,7.9-1.9,14.9-5.6,21c-3.7,6.1-8.7,11-15,14.5C316.9,147.2,309.9,149,302.4,149z M302.4,131.7
			c4.2,0,7.9-1,11.2-3c3.2-2,5.8-4.8,7.6-8.4c1.9-3.6,2.8-7.7,2.8-12.2c0-4.6-0.9-8.7-2.8-12.2c-1.9-3.5-4.4-6.3-7.6-8.4
			c-3.2-2.1-6.9-3.1-11.2-3.1c-4.3,0-8.1,1-11.4,3.1c-3.3,2.1-5.8,4.8-7.7,8.4c-1.9,3.5-2.8,7.6-2.8,12.2c0,4.5,0.9,8.6,2.8,12.2
			c1.9,3.6,4.4,6.4,7.7,8.4C294.2,130.7,298,131.7,302.4,131.7z"/>
		<path class="st1" d="M357.9,147.2v-109h18.9v71.4l-7.2-2.2l36.9-38.6h23.5L401,100.4l29.5,46.8h-21.6l-25.6-40.6l11.2-2.3
			l-23.6,25.3l5.9-11.5v29.1H357.9z"/>
	</g>
	<rect id="rect1" x="243.3" y="99.2" class="st1" width="22.4" height="14.5"/>
</g>
</svg>
