<svg id="svg1" xmlns="http://www.w3.org/2000/svg" viewBox="0 0 378.2856445312 110.7358398438">
  <defs>
    <style>
      .cls-1 {
      isolation: isolate;
      }

      .cls-2 {
      stroke-width:0px;
      }
      g {
      fill: currentColor;
      stroke: currentColor;
      }
      path {
      fill: currentColor;
      stroke: currentColor;
      }
      rect {
      fill: currentColor;
      stroke: currentColor;
      }
    </style>
  </defs>
  <g id="layer1">
    <g id="text1" class="cls-1">
      <g class="cls-1">
        <path class="cls-2"
          d="M54,110.7358398438c-7.681640625,0-14.78515625-1.392578125-21.3120117188-4.1767578125-6.5297851562-2.783203125-12.240234375-6.669921875-17.1362304688-11.6630859375-4.8959960938-4.9912109375-8.7119140625-10.84765625-11.4477539062-17.568359375-2.736328125-6.7177734375-4.1040039062-14.0625-4.1040039062-22.0317382812,0-7.9672851562,1.318359375-15.3359375,3.9599609375-22.1040039062,2.6391601562-6.7680664062,6.3833007812-12.6225585938,11.2319335938-17.5678710938,4.8461914062-4.943359375,10.5341796875-8.7841796875,17.0639648438-11.5200195312C38.783203125,1.3676757812,45.8862304688,0,53.5678710938,0c7.6791992188,0,14.56640625,1.2958984375,20.6640625,3.8876953125,6.0952148438,2.5922851562,11.2543945312,6.025390625,15.4799804688,10.2958984375,4.2231445312,4.2729492188,7.2470703125,8.953125,9.0717773438,14.0400390625l-17.423828125,8.3520507812c-2.0161132812-5.56640625-5.4248046875-10.080078125-10.2241210938-13.5356445312-4.8012695312-3.4560546875-10.6557617188-5.1840820312-17.5678710938-5.1840820312-6.720703125,0-12.6494140625,1.583984375-17.7841796875,4.751953125-5.13671875,3.16796875-9.1215820312,7.5375976562-11.9516601562,13.1040039062-2.8330078125,5.5688476562-4.248046875,12.095703125-4.248046875,19.583984375,0,7.4877929688,1.4624023438,14.0405273438,4.3916015625,19.6557617188,2.9272460938,5.6162109375,6.984375,10.0078125,12.16796875,13.17578125,5.1840820312,3.16796875,11.1352539062,4.751953125,17.8564453125,4.751953125,5.4716796875,0,10.51171875-1.080078125,15.1196289062-3.240234375,4.6083984375-2.1591796875,8.302734375-5.23046875,11.0883789062-9.21484375,2.783203125-3.982421875,4.17578125-8.712890625,4.17578125-14.1845703125v-8.2080078125l8.9282226562,7.775390625h-39.744140625v-16.5590820312h50.3999023438v10.7993164062c0,8.2578125-1.392578125,15.552734375-4.17578125,21.888671875-2.7856445312,6.3359375-6.5522460938,11.640625-11.3041992188,15.912109375-4.751953125,4.2724609375-10.1049804688,7.48828125-16.0561523438,9.6474609375-5.953125,2.16015625-12.095703125,3.240234375-18.431640625,3.240234375Z" />
        <path class="cls-2"
          d="M156.2392578125,110.7358398438c-7.681640625,0-14.6655273438-1.775390625-20.9516601562-5.328125-6.2890625-3.5498046875-11.2817382812-8.3994140625-14.9760742188-14.5439453125-3.6967773438-6.142578125-5.5439453125-13.1513671875-5.5439453125-21.0234375,0-7.87109375,1.8471679688-14.8798828125,5.5439453125-21.0244140625,3.6943359375-6.142578125,8.662109375-10.9912109375,14.9038085938-14.5439453125,6.2392578125-3.55078125,13.248046875-5.328125,21.0239257812-5.328125,7.6791992188,0,14.638671875,1.77734375,20.8798828125,5.328125,6.2392578125,3.552734375,11.2075195312,8.3764648438,14.9047851562,14.4716796875,3.6943359375,6.09765625,5.5439453125,13.12890625,5.5439453125,21.0966796875,0,7.8720703125-1.8720703125,14.880859375-5.6162109375,21.0234375-3.744140625,6.14453125-8.7368164062,10.994140625-14.9760742188,14.5439453125-6.2416992188,3.552734375-13.1538085938,5.328125-20.736328125,5.328125ZM156.2392578125,93.4555664062c4.2231445312,0,7.9423828125-1.0078125,11.16015625-3.0234375,3.2153320312-2.015625,5.759765625-4.82421875,7.6318359375-8.423828125,1.8720703125-3.6005859375,2.8081054688-7.654296875,2.8081054688-12.16796875,0-4.6083984375-.9360351562-8.6630859375-2.8081054688-12.16796875-1.8720703125-3.50390625-4.4165039062-6.287109375-7.6318359375-8.3525390625-3.2177734375-2.0634765625-6.9370117188-3.0961914062-11.16015625-3.0961914062-4.3198242188,0-8.11328125,1.0327148438-11.3759765625,3.0961914062-3.2646484375,2.0654296875-5.83203125,4.8486328125-7.7041015625,8.3525390625-1.8715820312,3.5048828125-2.8076171875,7.5595703125-2.8076171875,12.16796875,0,4.513671875.9360351562,8.5673828125,2.8076171875,12.16796875,1.8720703125,3.599609375,4.439453125,6.408203125,7.7041015625,8.423828125,3.2626953125,2.015625,7.0561523438,3.0234375,11.3759765625,3.0234375Z" />
        <path class="cls-2"
          d="M250.1264648438,110.7358398438c-7.681640625,0-14.6650390625-1.775390625-20.951171875-5.328125-6.2890625-3.5498046875-11.2822265625-8.3994140625-14.9765625-14.5439453125-3.6962890625-6.142578125-5.5439453125-13.1513671875-5.5439453125-21.0234375,0-7.87109375,1.84765625-14.8798828125,5.5439453125-21.0244140625,3.6943359375-6.142578125,8.662109375-10.9912109375,14.904296875-14.5439453125,6.2392578125-3.55078125,13.248046875-5.328125,21.0234375-5.328125,7.6796875,0,14.638671875,1.77734375,20.8798828125,5.328125,6.2392578125,3.552734375,11.2080078125,8.3764648438,14.904296875,14.4716796875,3.6943359375,6.09765625,5.5439453125,13.12890625,5.5439453125,21.0966796875,0,7.8720703125-1.8720703125,14.880859375-5.6162109375,21.0234375-3.7431640625,6.14453125-8.736328125,10.994140625-14.9755859375,14.5439453125-6.2412109375,3.552734375-13.1533203125,5.328125-20.736328125,5.328125ZM250.1264648438,93.4555664062c4.2236328125,0,7.9423828125-1.0078125,11.16015625-3.0234375,3.2158203125-2.015625,5.759765625-4.82421875,7.6318359375-8.423828125,1.8720703125-3.6005859375,2.80859375-7.654296875,2.80859375-12.16796875,0-4.6083984375-.9365234375-8.6630859375-2.80859375-12.16796875-1.8720703125-3.50390625-4.416015625-6.287109375-7.6318359375-8.3525390625-3.2177734375-2.0634765625-6.9365234375-3.0961914062-11.16015625-3.0961914062-4.3193359375,0-8.11328125,1.0327148438-11.3759765625,3.0961914062-3.2646484375,2.0654296875-5.83203125,4.8486328125-7.7041015625,8.3525390625-1.87109375,3.5048828125-2.8076171875,7.5595703125-2.8076171875,12.16796875,0,4.513671875.9365234375,8.5673828125,2.8076171875,12.16796875,1.8720703125,3.599609375,4.439453125,6.408203125,7.7041015625,8.423828125,3.2626953125,2.015625,7.056640625,3.0234375,11.3759765625,3.0234375Z" />
        <path class="cls-2"
          d="M305.7094726562,109.0083007812V0h18.8642578125v71.4243164062l-7.2001953125-2.16015625,36.8642578125-38.5922851562h23.4716796875l-28.9443359375,31.5356445312,29.5205078125,46.80078125h-21.6005859375l-25.6318359375-40.6083984375,11.232421875-2.3037109375-23.6162109375,25.34375,5.904296875-11.51953125v29.087890625h-18.8642578125Z" />
      </g>
    </g>
    <rect id="rect1" class="cls-2" x="191.0956564844" y="60.9831394327" width="22.3934443326"
      height="14.4974864098" />
  </g>
</svg>
